G04 #@! TF.GenerationSoftware,KiCad,Pcbnew,(5.1.2)-1*
G04 #@! TF.CreationDate,2019-07-14T19:38:15+02:00*
G04 #@! TF.ProjectId,pogo,706f676f-2e6b-4696-9361-645f70636258,rev?*
G04 #@! TF.SameCoordinates,Original*
G04 #@! TF.FileFunction,Legend,Bot*
G04 #@! TF.FilePolarity,Positive*
%FSLAX46Y46*%
G04 Gerber Fmt 4.6, Leading zero omitted, Abs format (unit mm)*
G04 Created by KiCad (PCBNEW (5.1.2)-1) date 2019-07-14 19:38:15*
%MOMM*%
%LPD*%
G04 APERTURE LIST*
%ADD10C,0.010000*%
G04 APERTURE END LIST*
D10*
G36*
X87193291Y-70872502D02*
G01*
X87301909Y-70956327D01*
X87437595Y-71010983D01*
X87439957Y-70968636D01*
X87333667Y-70866000D01*
X87248364Y-70714738D01*
X87200076Y-70471819D01*
X87196650Y-70411133D01*
X87188102Y-70203759D01*
X87173464Y-70153806D01*
X87144297Y-70249376D01*
X87128944Y-70315667D01*
X87100083Y-70648278D01*
X87193291Y-70872502D01*
X87193291Y-70872502D01*
G37*
X87193291Y-70872502D02*
X87301909Y-70956327D01*
X87437595Y-71010983D01*
X87439957Y-70968636D01*
X87333667Y-70866000D01*
X87248364Y-70714738D01*
X87200076Y-70471819D01*
X87196650Y-70411133D01*
X87188102Y-70203759D01*
X87173464Y-70153806D01*
X87144297Y-70249376D01*
X87128944Y-70315667D01*
X87100083Y-70648278D01*
X87193291Y-70872502D01*
G36*
X87740191Y-66983031D02*
G01*
X87859267Y-66754873D01*
X88000607Y-66587774D01*
X88009631Y-66580865D01*
X88101302Y-66492831D01*
X88085698Y-66463333D01*
X87901127Y-66540685D01*
X87752036Y-66743484D01*
X87680993Y-66971333D01*
X87631484Y-67267667D01*
X87740191Y-66983031D01*
X87740191Y-66983031D01*
G37*
X87740191Y-66983031D02*
X87859267Y-66754873D01*
X88000607Y-66587774D01*
X88009631Y-66580865D01*
X88101302Y-66492831D01*
X88085698Y-66463333D01*
X87901127Y-66540685D01*
X87752036Y-66743484D01*
X87680993Y-66971333D01*
X87631484Y-67267667D01*
X87740191Y-66983031D01*
G36*
X87417223Y-70681970D02*
G01*
X87481542Y-70749767D01*
X87629503Y-70773976D01*
X87898578Y-70759360D01*
X87970045Y-70752215D01*
X88594944Y-70630043D01*
X89096507Y-70401604D01*
X89490581Y-70057074D01*
X89767107Y-69638333D01*
X89897679Y-69271100D01*
X89967877Y-68833319D01*
X89973723Y-68391344D01*
X89911236Y-68011528D01*
X89871192Y-67902667D01*
X89597665Y-67475617D01*
X89234975Y-67128583D01*
X89234975Y-67305712D01*
X89403913Y-67436295D01*
X89592259Y-67688469D01*
X89690649Y-67860333D01*
X89800865Y-68212437D01*
X89828011Y-68649169D01*
X89774265Y-69108846D01*
X89641806Y-69529788D01*
X89630840Y-69553667D01*
X89485080Y-69824416D01*
X89331593Y-70050083D01*
X89256002Y-70133461D01*
X89095819Y-70242989D01*
X88988117Y-70229307D01*
X88927418Y-70081075D01*
X88908241Y-69786955D01*
X88919240Y-69436638D01*
X88929043Y-69068027D01*
X88920286Y-68734828D01*
X88894992Y-68495478D01*
X88885154Y-68453000D01*
X88860036Y-68208911D01*
X88887664Y-67905601D01*
X88955430Y-67608213D01*
X89050728Y-67381889D01*
X89105340Y-67315250D01*
X89234975Y-67305712D01*
X89234975Y-67128583D01*
X89197237Y-67092474D01*
X88787170Y-66831801D01*
X88563907Y-66719102D01*
X88388558Y-66647414D01*
X88270396Y-66634519D01*
X88270396Y-66802000D01*
X88452731Y-66832240D01*
X88635901Y-66903965D01*
X88760714Y-66988681D01*
X88778746Y-67046703D01*
X88736061Y-67177032D01*
X88695952Y-67390649D01*
X88693737Y-67406694D01*
X88640814Y-67770064D01*
X88578356Y-68156357D01*
X88520536Y-68478704D01*
X88510904Y-68527229D01*
X88483035Y-68685588D01*
X88437790Y-68965492D01*
X88382500Y-69320967D01*
X88347214Y-69553667D01*
X88289783Y-69922016D01*
X88237485Y-70232182D01*
X88197517Y-70442741D01*
X88181707Y-70506167D01*
X88084835Y-70577584D01*
X87905820Y-70609531D01*
X87712865Y-70602008D01*
X87574173Y-70555015D01*
X87545348Y-70506167D01*
X87560499Y-70376010D01*
X87600508Y-70129406D01*
X87657234Y-69815993D01*
X87666864Y-69765333D01*
X87794226Y-69092637D01*
X87894035Y-68547128D01*
X87972914Y-68090145D01*
X88037486Y-67683025D01*
X88094375Y-67287108D01*
X88105642Y-67204167D01*
X88162686Y-66943371D01*
X88240697Y-66811950D01*
X88270396Y-66802000D01*
X88270396Y-66634519D01*
X88251493Y-66632456D01*
X88143082Y-66689943D01*
X88053693Y-66835591D01*
X87973697Y-67085117D01*
X87893463Y-67454236D01*
X87803360Y-67958666D01*
X87693759Y-68614121D01*
X87693290Y-68616940D01*
X87603210Y-69174913D01*
X87526866Y-69680870D01*
X87467619Y-70109675D01*
X87428829Y-70436187D01*
X87413857Y-70635268D01*
X87417223Y-70681970D01*
X87417223Y-70681970D01*
G37*
X87417223Y-70681970D02*
X87481542Y-70749767D01*
X87629503Y-70773976D01*
X87898578Y-70759360D01*
X87970045Y-70752215D01*
X88594944Y-70630043D01*
X89096507Y-70401604D01*
X89490581Y-70057074D01*
X89767107Y-69638333D01*
X89897679Y-69271100D01*
X89967877Y-68833319D01*
X89973723Y-68391344D01*
X89911236Y-68011528D01*
X89871192Y-67902667D01*
X89597665Y-67475617D01*
X89234975Y-67128583D01*
X89234975Y-67305712D01*
X89403913Y-67436295D01*
X89592259Y-67688469D01*
X89690649Y-67860333D01*
X89800865Y-68212437D01*
X89828011Y-68649169D01*
X89774265Y-69108846D01*
X89641806Y-69529788D01*
X89630840Y-69553667D01*
X89485080Y-69824416D01*
X89331593Y-70050083D01*
X89256002Y-70133461D01*
X89095819Y-70242989D01*
X88988117Y-70229307D01*
X88927418Y-70081075D01*
X88908241Y-69786955D01*
X88919240Y-69436638D01*
X88929043Y-69068027D01*
X88920286Y-68734828D01*
X88894992Y-68495478D01*
X88885154Y-68453000D01*
X88860036Y-68208911D01*
X88887664Y-67905601D01*
X88955430Y-67608213D01*
X89050728Y-67381889D01*
X89105340Y-67315250D01*
X89234975Y-67305712D01*
X89234975Y-67128583D01*
X89197237Y-67092474D01*
X88787170Y-66831801D01*
X88563907Y-66719102D01*
X88388558Y-66647414D01*
X88270396Y-66634519D01*
X88270396Y-66802000D01*
X88452731Y-66832240D01*
X88635901Y-66903965D01*
X88760714Y-66988681D01*
X88778746Y-67046703D01*
X88736061Y-67177032D01*
X88695952Y-67390649D01*
X88693737Y-67406694D01*
X88640814Y-67770064D01*
X88578356Y-68156357D01*
X88520536Y-68478704D01*
X88510904Y-68527229D01*
X88483035Y-68685588D01*
X88437790Y-68965492D01*
X88382500Y-69320967D01*
X88347214Y-69553667D01*
X88289783Y-69922016D01*
X88237485Y-70232182D01*
X88197517Y-70442741D01*
X88181707Y-70506167D01*
X88084835Y-70577584D01*
X87905820Y-70609531D01*
X87712865Y-70602008D01*
X87574173Y-70555015D01*
X87545348Y-70506167D01*
X87560499Y-70376010D01*
X87600508Y-70129406D01*
X87657234Y-69815993D01*
X87666864Y-69765333D01*
X87794226Y-69092637D01*
X87894035Y-68547128D01*
X87972914Y-68090145D01*
X88037486Y-67683025D01*
X88094375Y-67287108D01*
X88105642Y-67204167D01*
X88162686Y-66943371D01*
X88240697Y-66811950D01*
X88270396Y-66802000D01*
X88270396Y-66634519D01*
X88251493Y-66632456D01*
X88143082Y-66689943D01*
X88053693Y-66835591D01*
X87973697Y-67085117D01*
X87893463Y-67454236D01*
X87803360Y-67958666D01*
X87693759Y-68614121D01*
X87693290Y-68616940D01*
X87603210Y-69174913D01*
X87526866Y-69680870D01*
X87467619Y-70109675D01*
X87428829Y-70436187D01*
X87413857Y-70635268D01*
X87417223Y-70681970D01*
G36*
X90145439Y-69373947D02*
G01*
X90171103Y-69342000D01*
X90213378Y-69222007D01*
X90244135Y-69046264D01*
X90258040Y-68873475D01*
X90249758Y-68762340D01*
X90224317Y-68756389D01*
X90193504Y-68854850D01*
X90153844Y-69057162D01*
X90142050Y-69130333D01*
X90121147Y-69331945D01*
X90145439Y-69373947D01*
X90145439Y-69373947D01*
G37*
X90145439Y-69373947D02*
X90171103Y-69342000D01*
X90213378Y-69222007D01*
X90244135Y-69046264D01*
X90258040Y-68873475D01*
X90249758Y-68762340D01*
X90224317Y-68756389D01*
X90193504Y-68854850D01*
X90153844Y-69057162D01*
X90142050Y-69130333D01*
X90121147Y-69331945D01*
X90145439Y-69373947D01*
G36*
X85663506Y-69679696D02*
G01*
X85682667Y-69680667D01*
X85764080Y-69615579D01*
X85767334Y-69591003D01*
X85715464Y-69540437D01*
X85682667Y-69553667D01*
X85601896Y-69629749D01*
X85598000Y-69643330D01*
X85663506Y-69679696D01*
X85663506Y-69679696D01*
G37*
X85663506Y-69679696D02*
X85682667Y-69680667D01*
X85764080Y-69615579D01*
X85767334Y-69591003D01*
X85715464Y-69540437D01*
X85682667Y-69553667D01*
X85601896Y-69629749D01*
X85598000Y-69643330D01*
X85663506Y-69679696D01*
G36*
X85710889Y-67366444D02*
G01*
X85761223Y-67354822D01*
X85767334Y-67310000D01*
X85736355Y-67240310D01*
X85710889Y-67253555D01*
X85700756Y-67354035D01*
X85710889Y-67366444D01*
X85710889Y-67366444D01*
G37*
X85710889Y-67366444D02*
X85761223Y-67354822D01*
X85767334Y-67310000D01*
X85736355Y-67240310D01*
X85710889Y-67253555D01*
X85700756Y-67354035D01*
X85710889Y-67366444D01*
G36*
X85700299Y-70181031D02*
G01*
X85779038Y-70170654D01*
X85842772Y-70124022D01*
X85778697Y-70068690D01*
X85654052Y-70037622D01*
X85620589Y-70053188D01*
X85606686Y-70136888D01*
X85700299Y-70181031D01*
X85700299Y-70181031D01*
G37*
X85700299Y-70181031D02*
X85779038Y-70170654D01*
X85842772Y-70124022D01*
X85778697Y-70068690D01*
X85654052Y-70037622D01*
X85620589Y-70053188D01*
X85606686Y-70136888D01*
X85700299Y-70181031D01*
G36*
X85666577Y-69925114D02*
G01*
X85725000Y-69934667D01*
X85837672Y-69888949D01*
X85852000Y-69850000D01*
X85783424Y-69774885D01*
X85725000Y-69765333D01*
X85612328Y-69811051D01*
X85598000Y-69850000D01*
X85666577Y-69925114D01*
X85666577Y-69925114D01*
G37*
X85666577Y-69925114D02*
X85725000Y-69934667D01*
X85837672Y-69888949D01*
X85852000Y-69850000D01*
X85783424Y-69774885D01*
X85725000Y-69765333D01*
X85612328Y-69811051D01*
X85598000Y-69850000D01*
X85666577Y-69925114D01*
G36*
X85666577Y-69417114D02*
G01*
X85725000Y-69426667D01*
X85837672Y-69380949D01*
X85852000Y-69342000D01*
X85783424Y-69266885D01*
X85725000Y-69257333D01*
X85612328Y-69303051D01*
X85598000Y-69342000D01*
X85666577Y-69417114D01*
X85666577Y-69417114D01*
G37*
X85666577Y-69417114D02*
X85725000Y-69426667D01*
X85837672Y-69380949D01*
X85852000Y-69342000D01*
X85783424Y-69266885D01*
X85725000Y-69257333D01*
X85612328Y-69303051D01*
X85598000Y-69342000D01*
X85666577Y-69417114D01*
G36*
X85666577Y-69163114D02*
G01*
X85725000Y-69172667D01*
X85837672Y-69126949D01*
X85852000Y-69088000D01*
X85783424Y-69012885D01*
X85725000Y-69003333D01*
X85612328Y-69049051D01*
X85598000Y-69088000D01*
X85666577Y-69163114D01*
X85666577Y-69163114D01*
G37*
X85666577Y-69163114D02*
X85725000Y-69172667D01*
X85837672Y-69126949D01*
X85852000Y-69088000D01*
X85783424Y-69012885D01*
X85725000Y-69003333D01*
X85612328Y-69049051D01*
X85598000Y-69088000D01*
X85666577Y-69163114D01*
G36*
X85666577Y-68147114D02*
G01*
X85725000Y-68156667D01*
X85837672Y-68110949D01*
X85852000Y-68072000D01*
X85783424Y-67996885D01*
X85725000Y-67987333D01*
X85612328Y-68033051D01*
X85598000Y-68072000D01*
X85666577Y-68147114D01*
X85666577Y-68147114D01*
G37*
X85666577Y-68147114D02*
X85725000Y-68156667D01*
X85837672Y-68110949D01*
X85852000Y-68072000D01*
X85783424Y-67996885D01*
X85725000Y-67987333D01*
X85612328Y-68033051D01*
X85598000Y-68072000D01*
X85666577Y-68147114D01*
G36*
X85666577Y-67639114D02*
G01*
X85725000Y-67648667D01*
X85837672Y-67602949D01*
X85852000Y-67564000D01*
X85783424Y-67488885D01*
X85725000Y-67479333D01*
X85612328Y-67525051D01*
X85598000Y-67564000D01*
X85666577Y-67639114D01*
X85666577Y-67639114D01*
G37*
X85666577Y-67639114D02*
X85725000Y-67648667D01*
X85837672Y-67602949D01*
X85852000Y-67564000D01*
X85783424Y-67488885D01*
X85725000Y-67479333D01*
X85612328Y-67525051D01*
X85598000Y-67564000D01*
X85666577Y-67639114D01*
G36*
X85585790Y-67881646D02*
G01*
X85725000Y-67902667D01*
X85884115Y-67873684D01*
X85936667Y-67818000D01*
X85864211Y-67754354D01*
X85725000Y-67733333D01*
X85565885Y-67762316D01*
X85513334Y-67818000D01*
X85585790Y-67881646D01*
X85585790Y-67881646D01*
G37*
X85585790Y-67881646D02*
X85725000Y-67902667D01*
X85884115Y-67873684D01*
X85936667Y-67818000D01*
X85864211Y-67754354D01*
X85725000Y-67733333D01*
X85565885Y-67762316D01*
X85513334Y-67818000D01*
X85585790Y-67881646D01*
G36*
X85503096Y-68889962D02*
G01*
X85686110Y-68917935D01*
X85725000Y-68918667D01*
X85920868Y-68897401D01*
X86018774Y-68845111D01*
X86021334Y-68834000D01*
X85946905Y-68778038D01*
X85763890Y-68750064D01*
X85725000Y-68749333D01*
X85529133Y-68770599D01*
X85431226Y-68822888D01*
X85428667Y-68834000D01*
X85503096Y-68889962D01*
X85503096Y-68889962D01*
G37*
X85503096Y-68889962D02*
X85686110Y-68917935D01*
X85725000Y-68918667D01*
X85920868Y-68897401D01*
X86018774Y-68845111D01*
X86021334Y-68834000D01*
X85946905Y-68778038D01*
X85763890Y-68750064D01*
X85725000Y-68749333D01*
X85529133Y-68770599D01*
X85431226Y-68822888D01*
X85428667Y-68834000D01*
X85503096Y-68889962D01*
G36*
X85503096Y-68381962D02*
G01*
X85686110Y-68409935D01*
X85725000Y-68410667D01*
X85920868Y-68389401D01*
X86018774Y-68337111D01*
X86021334Y-68326000D01*
X85946905Y-68270038D01*
X85763890Y-68242064D01*
X85725000Y-68241333D01*
X85529133Y-68262599D01*
X85431226Y-68314888D01*
X85428667Y-68326000D01*
X85503096Y-68381962D01*
X85503096Y-68381962D01*
G37*
X85503096Y-68381962D02*
X85686110Y-68409935D01*
X85725000Y-68410667D01*
X85920868Y-68389401D01*
X86018774Y-68337111D01*
X86021334Y-68326000D01*
X85946905Y-68270038D01*
X85763890Y-68242064D01*
X85725000Y-68241333D01*
X85529133Y-68262599D01*
X85431226Y-68314888D01*
X85428667Y-68326000D01*
X85503096Y-68381962D01*
G36*
X85335885Y-68626366D02*
G01*
X85533358Y-68657119D01*
X85725000Y-68664667D01*
X85980015Y-68650748D01*
X86149157Y-68614844D01*
X86190667Y-68580000D01*
X86114115Y-68533633D01*
X85916642Y-68502880D01*
X85725000Y-68495333D01*
X85469985Y-68509252D01*
X85300844Y-68545156D01*
X85259334Y-68580000D01*
X85335885Y-68626366D01*
X85335885Y-68626366D01*
G37*
X85335885Y-68626366D02*
X85533358Y-68657119D01*
X85725000Y-68664667D01*
X85980015Y-68650748D01*
X86149157Y-68614844D01*
X86190667Y-68580000D01*
X86114115Y-68533633D01*
X85916642Y-68502880D01*
X85725000Y-68495333D01*
X85469985Y-68509252D01*
X85300844Y-68545156D01*
X85259334Y-68580000D01*
X85335885Y-68626366D01*
G36*
X86546460Y-65299167D02*
G01*
X86571667Y-65828333D01*
X87199207Y-65853486D01*
X87564371Y-65857454D01*
X87792635Y-65823437D01*
X87914932Y-65735931D01*
X87962195Y-65579434D01*
X87967370Y-65468500D01*
X87987822Y-65350393D01*
X88076893Y-65294464D01*
X88279356Y-65278401D01*
X88349667Y-65278000D01*
X88585382Y-65268605D01*
X88697053Y-65224888D01*
X88729609Y-65123554D01*
X88730667Y-65080444D01*
X88708781Y-64902635D01*
X88674222Y-64826444D01*
X88572406Y-64804847D01*
X88335832Y-64787066D01*
X87999065Y-64774868D01*
X87596669Y-64770019D01*
X87569516Y-64770000D01*
X87249000Y-64770000D01*
X87249000Y-65278000D01*
X87476220Y-65294816D01*
X87612518Y-65337364D01*
X87630000Y-65362667D01*
X87554326Y-65413160D01*
X87362862Y-65443448D01*
X87249000Y-65447333D01*
X87021781Y-65430517D01*
X86885483Y-65387969D01*
X86868000Y-65362667D01*
X86943674Y-65312173D01*
X87135138Y-65281885D01*
X87249000Y-65278000D01*
X87249000Y-64770000D01*
X86521253Y-64770000D01*
X86546460Y-65299167D01*
X86546460Y-65299167D01*
G37*
X86546460Y-65299167D02*
X86571667Y-65828333D01*
X87199207Y-65853486D01*
X87564371Y-65857454D01*
X87792635Y-65823437D01*
X87914932Y-65735931D01*
X87962195Y-65579434D01*
X87967370Y-65468500D01*
X87987822Y-65350393D01*
X88076893Y-65294464D01*
X88279356Y-65278401D01*
X88349667Y-65278000D01*
X88585382Y-65268605D01*
X88697053Y-65224888D01*
X88729609Y-65123554D01*
X88730667Y-65080444D01*
X88708781Y-64902635D01*
X88674222Y-64826444D01*
X88572406Y-64804847D01*
X88335832Y-64787066D01*
X87999065Y-64774868D01*
X87596669Y-64770019D01*
X87569516Y-64770000D01*
X87249000Y-64770000D01*
X87249000Y-65278000D01*
X87476220Y-65294816D01*
X87612518Y-65337364D01*
X87630000Y-65362667D01*
X87554326Y-65413160D01*
X87362862Y-65443448D01*
X87249000Y-65447333D01*
X87021781Y-65430517D01*
X86885483Y-65387969D01*
X86868000Y-65362667D01*
X86943674Y-65312173D01*
X87135138Y-65281885D01*
X87249000Y-65278000D01*
X87249000Y-64770000D01*
X86521253Y-64770000D01*
X86546460Y-65299167D01*
G36*
X86555201Y-64317641D02*
G01*
X86592834Y-64349349D01*
X86698313Y-64361308D01*
X86933680Y-64391533D01*
X87261086Y-64435084D01*
X87545334Y-64473667D01*
X88012018Y-64536843D01*
X88336649Y-64575654D01*
X88545002Y-64588257D01*
X88662852Y-64572811D01*
X88715973Y-64527475D01*
X88730141Y-64450409D01*
X88730667Y-64389000D01*
X88695697Y-64227878D01*
X88558007Y-64178227D01*
X88519000Y-64177333D01*
X88348762Y-64133173D01*
X88307334Y-64050333D01*
X88380934Y-63948190D01*
X88519000Y-63923333D01*
X88680122Y-63888364D01*
X88729773Y-63750673D01*
X88730667Y-63711667D01*
X88694604Y-63553756D01*
X88624834Y-63502682D01*
X88500897Y-63514758D01*
X88249423Y-63545268D01*
X87910577Y-63589193D01*
X87630000Y-63627000D01*
X87587667Y-63632672D01*
X87587667Y-64029351D01*
X87761918Y-64036166D01*
X87806892Y-64055353D01*
X87779154Y-64066173D01*
X87575833Y-64081943D01*
X87440487Y-64067881D01*
X87393562Y-64045578D01*
X87495327Y-64031548D01*
X87587667Y-64029351D01*
X87587667Y-63632672D01*
X87252625Y-63677569D01*
X86933188Y-63718402D01*
X86711851Y-63744479D01*
X86635167Y-63751317D01*
X86572797Y-63823509D01*
X86535338Y-63989168D01*
X86527801Y-64177483D01*
X86555201Y-64317641D01*
X86555201Y-64317641D01*
G37*
X86555201Y-64317641D02*
X86592834Y-64349349D01*
X86698313Y-64361308D01*
X86933680Y-64391533D01*
X87261086Y-64435084D01*
X87545334Y-64473667D01*
X88012018Y-64536843D01*
X88336649Y-64575654D01*
X88545002Y-64588257D01*
X88662852Y-64572811D01*
X88715973Y-64527475D01*
X88730141Y-64450409D01*
X88730667Y-64389000D01*
X88695697Y-64227878D01*
X88558007Y-64178227D01*
X88519000Y-64177333D01*
X88348762Y-64133173D01*
X88307334Y-64050333D01*
X88380934Y-63948190D01*
X88519000Y-63923333D01*
X88680122Y-63888364D01*
X88729773Y-63750673D01*
X88730667Y-63711667D01*
X88694604Y-63553756D01*
X88624834Y-63502682D01*
X88500897Y-63514758D01*
X88249423Y-63545268D01*
X87910577Y-63589193D01*
X87630000Y-63627000D01*
X87587667Y-63632672D01*
X87587667Y-64029351D01*
X87761918Y-64036166D01*
X87806892Y-64055353D01*
X87779154Y-64066173D01*
X87575833Y-64081943D01*
X87440487Y-64067881D01*
X87393562Y-64045578D01*
X87495327Y-64031548D01*
X87587667Y-64029351D01*
X87587667Y-63632672D01*
X87252625Y-63677569D01*
X86933188Y-63718402D01*
X86711851Y-63744479D01*
X86635167Y-63751317D01*
X86572797Y-63823509D01*
X86535338Y-63989168D01*
X86527801Y-64177483D01*
X86555201Y-64317641D01*
G36*
X86543266Y-62530830D02*
G01*
X86612779Y-62616314D01*
X86779446Y-62674512D01*
X86973834Y-62714969D01*
X87418334Y-62800421D01*
X86973834Y-62811544D01*
X86714576Y-62824507D01*
X86582342Y-62860670D01*
X86534831Y-62941236D01*
X86529334Y-63034333D01*
X86529334Y-63246000D01*
X88741914Y-63246000D01*
X88715124Y-63017241D01*
X88676602Y-62874507D01*
X88573386Y-62783655D01*
X88360931Y-62712165D01*
X88265000Y-62688632D01*
X87841667Y-62588782D01*
X88286167Y-62578724D01*
X88545405Y-62566417D01*
X88677631Y-62530670D01*
X88725150Y-62450381D01*
X88730667Y-62357000D01*
X88730667Y-62145333D01*
X86529334Y-62145333D01*
X86529334Y-62387425D01*
X86543266Y-62530830D01*
X86543266Y-62530830D01*
G37*
X86543266Y-62530830D02*
X86612779Y-62616314D01*
X86779446Y-62674512D01*
X86973834Y-62714969D01*
X87418334Y-62800421D01*
X86973834Y-62811544D01*
X86714576Y-62824507D01*
X86582342Y-62860670D01*
X86534831Y-62941236D01*
X86529334Y-63034333D01*
X86529334Y-63246000D01*
X88741914Y-63246000D01*
X88715124Y-63017241D01*
X88676602Y-62874507D01*
X88573386Y-62783655D01*
X88360931Y-62712165D01*
X88265000Y-62688632D01*
X87841667Y-62588782D01*
X88286167Y-62578724D01*
X88545405Y-62566417D01*
X88677631Y-62530670D01*
X88725150Y-62450381D01*
X88730667Y-62357000D01*
X88730667Y-62145333D01*
X86529334Y-62145333D01*
X86529334Y-62387425D01*
X86543266Y-62530830D01*
G36*
X86931500Y-61875035D02*
G01*
X87157196Y-61882892D01*
X87261274Y-61846326D01*
X87290293Y-61740689D01*
X87291334Y-61684535D01*
X87258155Y-61520954D01*
X87126150Y-61469294D01*
X87079667Y-61468000D01*
X86920552Y-61439017D01*
X86868000Y-61383333D01*
X86921996Y-61296488D01*
X87056568Y-61311399D01*
X87230591Y-61412084D01*
X87402941Y-61582557D01*
X87412593Y-61595000D01*
X87553412Y-61762892D01*
X87687263Y-61851450D01*
X87875385Y-61885855D01*
X88133251Y-61891333D01*
X88438089Y-61878344D01*
X88609601Y-61833749D01*
X88679275Y-61757408D01*
X88725921Y-61489897D01*
X88701080Y-61196701D01*
X88639218Y-61023500D01*
X88510160Y-60918380D01*
X88263494Y-60877029D01*
X88176126Y-60875333D01*
X87942664Y-60884337D01*
X87832683Y-60928419D01*
X87800598Y-61033189D01*
X87799334Y-61087000D01*
X87826671Y-61238272D01*
X87942879Y-61293612D01*
X88053334Y-61298667D01*
X88231675Y-61323191D01*
X88307314Y-61382280D01*
X88307334Y-61383333D01*
X88233957Y-61443547D01*
X88061697Y-61468000D01*
X87869034Y-61429305D01*
X87715868Y-61286577D01*
X87638603Y-61167234D01*
X87524739Y-60992167D01*
X87412608Y-60906430D01*
X87241672Y-60883248D01*
X87016407Y-60892067D01*
X86571667Y-60917667D01*
X86571667Y-61849000D01*
X86931500Y-61875035D01*
X86931500Y-61875035D01*
G37*
X86931500Y-61875035D02*
X87157196Y-61882892D01*
X87261274Y-61846326D01*
X87290293Y-61740689D01*
X87291334Y-61684535D01*
X87258155Y-61520954D01*
X87126150Y-61469294D01*
X87079667Y-61468000D01*
X86920552Y-61439017D01*
X86868000Y-61383333D01*
X86921996Y-61296488D01*
X87056568Y-61311399D01*
X87230591Y-61412084D01*
X87402941Y-61582557D01*
X87412593Y-61595000D01*
X87553412Y-61762892D01*
X87687263Y-61851450D01*
X87875385Y-61885855D01*
X88133251Y-61891333D01*
X88438089Y-61878344D01*
X88609601Y-61833749D01*
X88679275Y-61757408D01*
X88725921Y-61489897D01*
X88701080Y-61196701D01*
X88639218Y-61023500D01*
X88510160Y-60918380D01*
X88263494Y-60877029D01*
X88176126Y-60875333D01*
X87942664Y-60884337D01*
X87832683Y-60928419D01*
X87800598Y-61033189D01*
X87799334Y-61087000D01*
X87826671Y-61238272D01*
X87942879Y-61293612D01*
X88053334Y-61298667D01*
X88231675Y-61323191D01*
X88307314Y-61382280D01*
X88307334Y-61383333D01*
X88233957Y-61443547D01*
X88061697Y-61468000D01*
X87869034Y-61429305D01*
X87715868Y-61286577D01*
X87638603Y-61167234D01*
X87524739Y-60992167D01*
X87412608Y-60906430D01*
X87241672Y-60883248D01*
X87016407Y-60892067D01*
X86571667Y-60917667D01*
X86571667Y-61849000D01*
X86931500Y-61875035D01*
G36*
X88948622Y-65629618D02*
G01*
X89098991Y-65807312D01*
X89357865Y-65856046D01*
X89523557Y-65835102D01*
X89735337Y-65800451D01*
X89873253Y-65789786D01*
X89873667Y-65789817D01*
X90288540Y-65816329D01*
X90563911Y-65815324D01*
X90728037Y-65782321D01*
X90809176Y-65712839D01*
X90832055Y-65637833D01*
X90832251Y-65521114D01*
X90761448Y-65465174D01*
X90578344Y-65448148D01*
X90472222Y-65447333D01*
X90242969Y-65430757D01*
X90104234Y-65388752D01*
X90085334Y-65362667D01*
X90161008Y-65312173D01*
X90352471Y-65281885D01*
X90466334Y-65278000D01*
X90704428Y-65266920D01*
X90817016Y-65220915D01*
X90847188Y-65120831D01*
X90847334Y-65108667D01*
X90837007Y-65035911D01*
X90786930Y-64987620D01*
X90668453Y-64958812D01*
X90452929Y-64944505D01*
X90111710Y-64939716D01*
X89873667Y-64939333D01*
X89492667Y-64939333D01*
X89492667Y-65278000D01*
X89671009Y-65302524D01*
X89746647Y-65361613D01*
X89746667Y-65362667D01*
X89673094Y-65422114D01*
X89495827Y-65447327D01*
X89492667Y-65447333D01*
X89314325Y-65422809D01*
X89238686Y-65363720D01*
X89238667Y-65362667D01*
X89312239Y-65303219D01*
X89489507Y-65278006D01*
X89492667Y-65278000D01*
X89492667Y-64939333D01*
X88900000Y-64939333D01*
X88900000Y-65317354D01*
X88948622Y-65629618D01*
X88948622Y-65629618D01*
G37*
X88948622Y-65629618D02*
X89098991Y-65807312D01*
X89357865Y-65856046D01*
X89523557Y-65835102D01*
X89735337Y-65800451D01*
X89873253Y-65789786D01*
X89873667Y-65789817D01*
X90288540Y-65816329D01*
X90563911Y-65815324D01*
X90728037Y-65782321D01*
X90809176Y-65712839D01*
X90832055Y-65637833D01*
X90832251Y-65521114D01*
X90761448Y-65465174D01*
X90578344Y-65448148D01*
X90472222Y-65447333D01*
X90242969Y-65430757D01*
X90104234Y-65388752D01*
X90085334Y-65362667D01*
X90161008Y-65312173D01*
X90352471Y-65281885D01*
X90466334Y-65278000D01*
X90704428Y-65266920D01*
X90817016Y-65220915D01*
X90847188Y-65120831D01*
X90847334Y-65108667D01*
X90837007Y-65035911D01*
X90786930Y-64987620D01*
X90668453Y-64958812D01*
X90452929Y-64944505D01*
X90111710Y-64939716D01*
X89873667Y-64939333D01*
X89492667Y-64939333D01*
X89492667Y-65278000D01*
X89671009Y-65302524D01*
X89746647Y-65361613D01*
X89746667Y-65362667D01*
X89673094Y-65422114D01*
X89495827Y-65447327D01*
X89492667Y-65447333D01*
X89314325Y-65422809D01*
X89238686Y-65363720D01*
X89238667Y-65362667D01*
X89312239Y-65303219D01*
X89489507Y-65278006D01*
X89492667Y-65278000D01*
X89492667Y-64939333D01*
X88900000Y-64939333D01*
X88900000Y-65317354D01*
X88948622Y-65629618D01*
G36*
X90847334Y-64685333D02*
G01*
X90847334Y-64262000D01*
X88900000Y-64262000D01*
X88900000Y-64685333D01*
X90847334Y-64685333D01*
X90847334Y-64685333D01*
G37*
X90847334Y-64685333D02*
X90847334Y-64262000D01*
X88900000Y-64262000D01*
X88900000Y-64685333D01*
X90847334Y-64685333D01*
G36*
X88910509Y-63763162D02*
G01*
X88935823Y-63838652D01*
X88936207Y-63838667D01*
X89043181Y-63849380D01*
X89271611Y-63877433D01*
X89575254Y-63916693D01*
X89907867Y-63961031D01*
X90223208Y-64004313D01*
X90475034Y-64040410D01*
X90578719Y-64056448D01*
X90767550Y-64075858D01*
X90836510Y-64029739D01*
X90832719Y-63907232D01*
X90738229Y-63732743D01*
X90614500Y-63684611D01*
X90452748Y-63626585D01*
X90442911Y-63550752D01*
X90579792Y-63502457D01*
X90635667Y-63500000D01*
X90796937Y-63464884D01*
X90846508Y-63327366D01*
X90847334Y-63290450D01*
X90824146Y-63143144D01*
X90719852Y-63107358D01*
X90614500Y-63120497D01*
X90408496Y-63152067D01*
X90113715Y-63193135D01*
X90012475Y-63206530D01*
X90012475Y-63528674D01*
X90086004Y-63542748D01*
X90165356Y-63621137D01*
X90083218Y-63660808D01*
X89937167Y-63666759D01*
X89786796Y-63656498D01*
X89788697Y-63618951D01*
X89853171Y-63577510D01*
X90012475Y-63528674D01*
X90012475Y-63206530D01*
X89778078Y-63237543D01*
X89449503Y-63279137D01*
X89175909Y-63311760D01*
X89005215Y-63329256D01*
X88978540Y-63330667D01*
X88923387Y-63404265D01*
X88900006Y-63581585D01*
X88900000Y-63584667D01*
X88910509Y-63763162D01*
X88910509Y-63763162D01*
G37*
X88910509Y-63763162D02*
X88935823Y-63838652D01*
X88936207Y-63838667D01*
X89043181Y-63849380D01*
X89271611Y-63877433D01*
X89575254Y-63916693D01*
X89907867Y-63961031D01*
X90223208Y-64004313D01*
X90475034Y-64040410D01*
X90578719Y-64056448D01*
X90767550Y-64075858D01*
X90836510Y-64029739D01*
X90832719Y-63907232D01*
X90738229Y-63732743D01*
X90614500Y-63684611D01*
X90452748Y-63626585D01*
X90442911Y-63550752D01*
X90579792Y-63502457D01*
X90635667Y-63500000D01*
X90796937Y-63464884D01*
X90846508Y-63327366D01*
X90847334Y-63290450D01*
X90824146Y-63143144D01*
X90719852Y-63107358D01*
X90614500Y-63120497D01*
X90408496Y-63152067D01*
X90113715Y-63193135D01*
X90012475Y-63206530D01*
X90012475Y-63528674D01*
X90086004Y-63542748D01*
X90165356Y-63621137D01*
X90083218Y-63660808D01*
X89937167Y-63666759D01*
X89786796Y-63656498D01*
X89788697Y-63618951D01*
X89853171Y-63577510D01*
X90012475Y-63528674D01*
X90012475Y-63206530D01*
X89778078Y-63237543D01*
X89449503Y-63279137D01*
X89175909Y-63311760D01*
X89005215Y-63329256D01*
X88978540Y-63330667D01*
X88923387Y-63404265D01*
X88900006Y-63581585D01*
X88900000Y-63584667D01*
X88910509Y-63763162D01*
G36*
X88910275Y-62810574D02*
G01*
X88960141Y-62858815D01*
X89078164Y-62887662D01*
X89292907Y-62902052D01*
X89632935Y-62906923D01*
X89879555Y-62907333D01*
X90298299Y-62906145D01*
X90575627Y-62898905D01*
X90739459Y-62880098D01*
X90817712Y-62844210D01*
X90838304Y-62785726D01*
X90832055Y-62719190D01*
X90773234Y-62587178D01*
X90615838Y-62497643D01*
X90424000Y-62445136D01*
X90043000Y-62359225D01*
X90445167Y-62332307D01*
X90694036Y-62303729D01*
X90814479Y-62248776D01*
X90847263Y-62148026D01*
X90847334Y-62140694D01*
X90836034Y-62070051D01*
X90783138Y-62023085D01*
X90660155Y-61995006D01*
X90438590Y-61981023D01*
X90089952Y-61976346D01*
X89867778Y-61976000D01*
X89449033Y-61977215D01*
X89171708Y-61984511D01*
X89007891Y-62003361D01*
X88929671Y-62039240D01*
X88909135Y-62097621D01*
X88915278Y-62162802D01*
X88979809Y-62298724D01*
X89151751Y-62397667D01*
X89323334Y-62450823D01*
X89704334Y-62552042D01*
X89302167Y-62560354D01*
X89055506Y-62575831D01*
X88935680Y-62621266D01*
X88900573Y-62715263D01*
X88900000Y-62738000D01*
X88910275Y-62810574D01*
X88910275Y-62810574D01*
G37*
X88910275Y-62810574D02*
X88960141Y-62858815D01*
X89078164Y-62887662D01*
X89292907Y-62902052D01*
X89632935Y-62906923D01*
X89879555Y-62907333D01*
X90298299Y-62906145D01*
X90575627Y-62898905D01*
X90739459Y-62880098D01*
X90817712Y-62844210D01*
X90838304Y-62785726D01*
X90832055Y-62719190D01*
X90773234Y-62587178D01*
X90615838Y-62497643D01*
X90424000Y-62445136D01*
X90043000Y-62359225D01*
X90445167Y-62332307D01*
X90694036Y-62303729D01*
X90814479Y-62248776D01*
X90847263Y-62148026D01*
X90847334Y-62140694D01*
X90836034Y-62070051D01*
X90783138Y-62023085D01*
X90660155Y-61995006D01*
X90438590Y-61981023D01*
X90089952Y-61976346D01*
X89867778Y-61976000D01*
X89449033Y-61977215D01*
X89171708Y-61984511D01*
X89007891Y-62003361D01*
X88929671Y-62039240D01*
X88909135Y-62097621D01*
X88915278Y-62162802D01*
X88979809Y-62298724D01*
X89151751Y-62397667D01*
X89323334Y-62450823D01*
X89704334Y-62552042D01*
X89302167Y-62560354D01*
X89055506Y-62575831D01*
X88935680Y-62621266D01*
X88900573Y-62715263D01*
X88900000Y-62738000D01*
X88910275Y-62810574D01*
G36*
X88931706Y-61570628D02*
G01*
X89042929Y-61694020D01*
X89257830Y-61767544D01*
X89600567Y-61801287D01*
X89904386Y-61806667D01*
X90345062Y-61785802D01*
X90637312Y-61713252D01*
X90798009Y-61574076D01*
X90844026Y-61353338D01*
X90792234Y-61036100D01*
X90788971Y-61023500D01*
X90751584Y-60956054D01*
X90661255Y-60912529D01*
X90487170Y-60887923D01*
X90198513Y-60877232D01*
X90042820Y-60876314D01*
X90042820Y-61214809D01*
X90281067Y-61228219D01*
X90431433Y-61257767D01*
X90452222Y-61270444D01*
X90494463Y-61325878D01*
X90466448Y-61359473D01*
X90340529Y-61376625D01*
X90089055Y-61382729D01*
X89873667Y-61383333D01*
X89553707Y-61372828D01*
X89330693Y-61344389D01*
X89239261Y-61302637D01*
X89238667Y-61298667D01*
X89314617Y-61259468D01*
X89508214Y-61231629D01*
X89768076Y-61216344D01*
X90042820Y-61214809D01*
X90042820Y-60876314D01*
X89876517Y-60875333D01*
X89458187Y-60879113D01*
X89180424Y-60900498D01*
X89014480Y-60954561D01*
X88931607Y-61056373D01*
X88903058Y-61221004D01*
X88900000Y-61387279D01*
X88931706Y-61570628D01*
X88931706Y-61570628D01*
G37*
X88931706Y-61570628D02*
X89042929Y-61694020D01*
X89257830Y-61767544D01*
X89600567Y-61801287D01*
X89904386Y-61806667D01*
X90345062Y-61785802D01*
X90637312Y-61713252D01*
X90798009Y-61574076D01*
X90844026Y-61353338D01*
X90792234Y-61036100D01*
X90788971Y-61023500D01*
X90751584Y-60956054D01*
X90661255Y-60912529D01*
X90487170Y-60887923D01*
X90198513Y-60877232D01*
X90042820Y-60876314D01*
X90042820Y-61214809D01*
X90281067Y-61228219D01*
X90431433Y-61257767D01*
X90452222Y-61270444D01*
X90494463Y-61325878D01*
X90466448Y-61359473D01*
X90340529Y-61376625D01*
X90089055Y-61382729D01*
X89873667Y-61383333D01*
X89553707Y-61372828D01*
X89330693Y-61344389D01*
X89239261Y-61302637D01*
X89238667Y-61298667D01*
X89314617Y-61259468D01*
X89508214Y-61231629D01*
X89768076Y-61216344D01*
X90042820Y-61214809D01*
X90042820Y-60876314D01*
X89876517Y-60875333D01*
X89458187Y-60879113D01*
X89180424Y-60900498D01*
X89014480Y-60954561D01*
X88931607Y-61056373D01*
X88903058Y-61221004D01*
X88900000Y-61387279D01*
X88931706Y-61570628D01*
G36*
X91262945Y-65312113D02*
G01*
X91377416Y-65445321D01*
X91376329Y-65520708D01*
X91267910Y-65598739D01*
X91121551Y-65727794D01*
X91137388Y-65821144D01*
X91310066Y-65867560D01*
X91397667Y-65870667D01*
X91593534Y-65849401D01*
X91691441Y-65797111D01*
X91694000Y-65786000D01*
X91622163Y-65718871D01*
X91503500Y-65698640D01*
X91372241Y-65686893D01*
X91397467Y-65633891D01*
X91462106Y-65582787D01*
X91563595Y-65484741D01*
X91525653Y-65400961D01*
X91472035Y-65354119D01*
X91386762Y-65264306D01*
X91443249Y-65215221D01*
X91533742Y-65191191D01*
X91660070Y-65136624D01*
X91633540Y-65081294D01*
X91480821Y-65053280D01*
X91311929Y-65074168D01*
X91091403Y-65129516D01*
X91262945Y-65312113D01*
X91262945Y-65312113D01*
G37*
X91262945Y-65312113D02*
X91377416Y-65445321D01*
X91376329Y-65520708D01*
X91267910Y-65598739D01*
X91121551Y-65727794D01*
X91137388Y-65821144D01*
X91310066Y-65867560D01*
X91397667Y-65870667D01*
X91593534Y-65849401D01*
X91691441Y-65797111D01*
X91694000Y-65786000D01*
X91622163Y-65718871D01*
X91503500Y-65698640D01*
X91372241Y-65686893D01*
X91397467Y-65633891D01*
X91462106Y-65582787D01*
X91563595Y-65484741D01*
X91525653Y-65400961D01*
X91472035Y-65354119D01*
X91386762Y-65264306D01*
X91443249Y-65215221D01*
X91533742Y-65191191D01*
X91660070Y-65136624D01*
X91633540Y-65081294D01*
X91480821Y-65053280D01*
X91311929Y-65074168D01*
X91091403Y-65129516D01*
X91262945Y-65312113D01*
G36*
X91117632Y-64452500D02*
G01*
X91143747Y-64678640D01*
X91202672Y-64782556D01*
X91331038Y-64811313D01*
X91397667Y-64812333D01*
X91558295Y-64798517D01*
X91636916Y-64725690D01*
X91670160Y-64546786D01*
X91677702Y-64452500D01*
X91703736Y-64092667D01*
X91376500Y-64092667D01*
X91376500Y-64193016D01*
X91483085Y-64211542D01*
X91522483Y-64347263D01*
X91524667Y-64425125D01*
X91500142Y-64612921D01*
X91406244Y-64681249D01*
X91349710Y-64685333D01*
X91224678Y-64651962D01*
X91195762Y-64520523D01*
X91201543Y-64453224D01*
X91273823Y-64260197D01*
X91376500Y-64193016D01*
X91376500Y-64092667D01*
X91091597Y-64092667D01*
X91117632Y-64452500D01*
X91117632Y-64452500D01*
G37*
X91117632Y-64452500D02*
X91143747Y-64678640D01*
X91202672Y-64782556D01*
X91331038Y-64811313D01*
X91397667Y-64812333D01*
X91558295Y-64798517D01*
X91636916Y-64725690D01*
X91670160Y-64546786D01*
X91677702Y-64452500D01*
X91703736Y-64092667D01*
X91376500Y-64092667D01*
X91376500Y-64193016D01*
X91483085Y-64211542D01*
X91522483Y-64347263D01*
X91524667Y-64425125D01*
X91500142Y-64612921D01*
X91406244Y-64681249D01*
X91349710Y-64685333D01*
X91224678Y-64651962D01*
X91195762Y-64520523D01*
X91201543Y-64453224D01*
X91273823Y-64260197D01*
X91376500Y-64193016D01*
X91376500Y-64092667D01*
X91091597Y-64092667D01*
X91117632Y-64452500D01*
G36*
X91120857Y-63729399D02*
G01*
X91164448Y-63834520D01*
X91178773Y-63838667D01*
X91228465Y-63766182D01*
X91215634Y-63584667D01*
X91196479Y-63406470D01*
X91257424Y-63338974D01*
X91354360Y-63330667D01*
X91484632Y-63355284D01*
X91519047Y-63462574D01*
X91506607Y-63584667D01*
X91507279Y-63781238D01*
X91581664Y-63838667D01*
X91660992Y-63768361D01*
X91694679Y-63601787D01*
X91683726Y-63405460D01*
X91629138Y-63245892D01*
X91571946Y-63193849D01*
X91335625Y-63160959D01*
X91183317Y-63274874D01*
X91117389Y-63521871D01*
X91120857Y-63729399D01*
X91120857Y-63729399D01*
G37*
X91120857Y-63729399D02*
X91164448Y-63834520D01*
X91178773Y-63838667D01*
X91228465Y-63766182D01*
X91215634Y-63584667D01*
X91196479Y-63406470D01*
X91257424Y-63338974D01*
X91354360Y-63330667D01*
X91484632Y-63355284D01*
X91519047Y-63462574D01*
X91506607Y-63584667D01*
X91507279Y-63781238D01*
X91581664Y-63838667D01*
X91660992Y-63768361D01*
X91694679Y-63601787D01*
X91683726Y-63405460D01*
X91629138Y-63245892D01*
X91571946Y-63193849D01*
X91335625Y-63160959D01*
X91183317Y-63274874D01*
X91117389Y-63521871D01*
X91120857Y-63729399D01*
G36*
X91508577Y-62897781D02*
G01*
X91567000Y-62907333D01*
X91679672Y-62861616D01*
X91694000Y-62822667D01*
X91625424Y-62747552D01*
X91567000Y-62738000D01*
X91454328Y-62783717D01*
X91440000Y-62822667D01*
X91508577Y-62897781D01*
X91508577Y-62897781D01*
G37*
X91508577Y-62897781D02*
X91567000Y-62907333D01*
X91679672Y-62861616D01*
X91694000Y-62822667D01*
X91625424Y-62747552D01*
X91567000Y-62738000D01*
X91454328Y-62783717D01*
X91440000Y-62822667D01*
X91508577Y-62897781D01*
G36*
X85594049Y-67014682D02*
G01*
X85629100Y-67046677D01*
X85752756Y-67092593D01*
X85851134Y-67014711D01*
X86016100Y-66912593D01*
X86158700Y-66886667D01*
X86360000Y-66886667D01*
X86360000Y-70527333D01*
X86158700Y-70527333D01*
X85955813Y-70476309D01*
X85851134Y-70399289D01*
X85762609Y-70338858D01*
X85762609Y-70479961D01*
X85797858Y-70501413D01*
X85849362Y-70624316D01*
X85758741Y-70694209D01*
X85725000Y-70696667D01*
X85612289Y-70653600D01*
X85598000Y-70616997D01*
X85654021Y-70506437D01*
X85762609Y-70479961D01*
X85762609Y-70338858D01*
X85732847Y-70318540D01*
X85629100Y-70367323D01*
X85512922Y-70530405D01*
X85533024Y-70669385D01*
X85657068Y-70744616D01*
X85852716Y-70716451D01*
X85896695Y-70695403D01*
X86134393Y-70625670D01*
X86293736Y-70701612D01*
X86359192Y-70914718D01*
X86360000Y-70949349D01*
X86360000Y-71207345D01*
X91059000Y-71162333D01*
X91101334Y-70104000D01*
X91143667Y-69045667D01*
X91757500Y-67633023D01*
X91953259Y-67179742D01*
X92123212Y-66780919D01*
X92256656Y-66462107D01*
X92342888Y-66248861D01*
X92371334Y-66167526D01*
X92314442Y-66154071D01*
X92265500Y-66176747D01*
X92144436Y-66253492D01*
X91930170Y-66394183D01*
X91677479Y-66562744D01*
X91429714Y-66724919D01*
X91240072Y-66841113D01*
X91148873Y-66886646D01*
X91148312Y-66886667D01*
X91117243Y-66812141D01*
X91101733Y-66628921D01*
X91101334Y-66590333D01*
X91101334Y-66294000D01*
X86444667Y-66294000D01*
X86444667Y-66378667D01*
X91016667Y-66378667D01*
X91016667Y-66717333D01*
X91028143Y-66929491D01*
X91056809Y-67047414D01*
X91068364Y-67056000D01*
X91157435Y-67010737D01*
X91347324Y-66890698D01*
X91601045Y-66719507D01*
X91667207Y-66673518D01*
X91876176Y-66527222D01*
X92025303Y-66431706D01*
X92113530Y-66401783D01*
X92139802Y-66452263D01*
X92103064Y-66597956D01*
X92002257Y-66853674D01*
X91836328Y-67234226D01*
X91604219Y-67754424D01*
X91587453Y-67791997D01*
X91065913Y-68961000D01*
X91020123Y-70019333D01*
X90974334Y-71077667D01*
X88709500Y-71094758D01*
X86444667Y-71111850D01*
X86444667Y-66378667D01*
X86444667Y-66294000D01*
X86360000Y-66294000D01*
X86360000Y-66508324D01*
X86300716Y-66708555D01*
X86141375Y-66785122D01*
X85909746Y-66725422D01*
X85896695Y-66718597D01*
X85732056Y-66676149D01*
X85732056Y-66717333D01*
X85824774Y-66766687D01*
X85809989Y-66868237D01*
X85698542Y-66951930D01*
X85612175Y-66915081D01*
X85598000Y-66851389D01*
X85666170Y-66734757D01*
X85732056Y-66717333D01*
X85732056Y-66676149D01*
X85690800Y-66665511D01*
X85550169Y-66723595D01*
X85507139Y-66853201D01*
X85594049Y-67014682D01*
X85594049Y-67014682D01*
G37*
X85594049Y-67014682D02*
X85629100Y-67046677D01*
X85752756Y-67092593D01*
X85851134Y-67014711D01*
X86016100Y-66912593D01*
X86158700Y-66886667D01*
X86360000Y-66886667D01*
X86360000Y-70527333D01*
X86158700Y-70527333D01*
X85955813Y-70476309D01*
X85851134Y-70399289D01*
X85762609Y-70338858D01*
X85762609Y-70479961D01*
X85797858Y-70501413D01*
X85849362Y-70624316D01*
X85758741Y-70694209D01*
X85725000Y-70696667D01*
X85612289Y-70653600D01*
X85598000Y-70616997D01*
X85654021Y-70506437D01*
X85762609Y-70479961D01*
X85762609Y-70338858D01*
X85732847Y-70318540D01*
X85629100Y-70367323D01*
X85512922Y-70530405D01*
X85533024Y-70669385D01*
X85657068Y-70744616D01*
X85852716Y-70716451D01*
X85896695Y-70695403D01*
X86134393Y-70625670D01*
X86293736Y-70701612D01*
X86359192Y-70914718D01*
X86360000Y-70949349D01*
X86360000Y-71207345D01*
X91059000Y-71162333D01*
X91101334Y-70104000D01*
X91143667Y-69045667D01*
X91757500Y-67633023D01*
X91953259Y-67179742D01*
X92123212Y-66780919D01*
X92256656Y-66462107D01*
X92342888Y-66248861D01*
X92371334Y-66167526D01*
X92314442Y-66154071D01*
X92265500Y-66176747D01*
X92144436Y-66253492D01*
X91930170Y-66394183D01*
X91677479Y-66562744D01*
X91429714Y-66724919D01*
X91240072Y-66841113D01*
X91148873Y-66886646D01*
X91148312Y-66886667D01*
X91117243Y-66812141D01*
X91101733Y-66628921D01*
X91101334Y-66590333D01*
X91101334Y-66294000D01*
X86444667Y-66294000D01*
X86444667Y-66378667D01*
X91016667Y-66378667D01*
X91016667Y-66717333D01*
X91028143Y-66929491D01*
X91056809Y-67047414D01*
X91068364Y-67056000D01*
X91157435Y-67010737D01*
X91347324Y-66890698D01*
X91601045Y-66719507D01*
X91667207Y-66673518D01*
X91876176Y-66527222D01*
X92025303Y-66431706D01*
X92113530Y-66401783D01*
X92139802Y-66452263D01*
X92103064Y-66597956D01*
X92002257Y-66853674D01*
X91836328Y-67234226D01*
X91604219Y-67754424D01*
X91587453Y-67791997D01*
X91065913Y-68961000D01*
X91020123Y-70019333D01*
X90974334Y-71077667D01*
X88709500Y-71094758D01*
X86444667Y-71111850D01*
X86444667Y-66378667D01*
X86444667Y-66294000D01*
X86360000Y-66294000D01*
X86360000Y-66508324D01*
X86300716Y-66708555D01*
X86141375Y-66785122D01*
X85909746Y-66725422D01*
X85896695Y-66718597D01*
X85732056Y-66676149D01*
X85732056Y-66717333D01*
X85824774Y-66766687D01*
X85809989Y-66868237D01*
X85698542Y-66951930D01*
X85612175Y-66915081D01*
X85598000Y-66851389D01*
X85666170Y-66734757D01*
X85732056Y-66717333D01*
X85732056Y-66676149D01*
X85690800Y-66665511D01*
X85550169Y-66723595D01*
X85507139Y-66853201D01*
X85594049Y-67014682D01*
M02*
