G04 #@! TF.GenerationSoftware,KiCad,Pcbnew,(5.1.2)-1*
G04 #@! TF.CreationDate,2019-07-14T19:38:15+02:00*
G04 #@! TF.ProjectId,pogo,706f676f-2e6b-4696-9361-645f70636258,rev?*
G04 #@! TF.SameCoordinates,Original*
G04 #@! TF.FileFunction,Soldermask,Bot*
G04 #@! TF.FilePolarity,Negative*
%FSLAX46Y46*%
G04 Gerber Fmt 4.6, Leading zero omitted, Abs format (unit mm)*
G04 Created by KiCad (PCBNEW (5.1.2)-1) date 2019-07-14 19:38:15*
%MOMM*%
%LPD*%
G04 APERTURE LIST*
%ADD10C,0.100000*%
G04 APERTURE END LIST*
D10*
G36*
X94759443Y-71440919D02*
G01*
X94825628Y-71447438D01*
X94995467Y-71498958D01*
X95151992Y-71582623D01*
X95187730Y-71611953D01*
X95289187Y-71695215D01*
X95372449Y-71796672D01*
X95401779Y-71832410D01*
X95485444Y-71988935D01*
X95536964Y-72158774D01*
X95554360Y-72335401D01*
X95536964Y-72512028D01*
X95485444Y-72681867D01*
X95401779Y-72838392D01*
X95372449Y-72874130D01*
X95289187Y-72975587D01*
X95187730Y-73058849D01*
X95151992Y-73088179D01*
X94995467Y-73171844D01*
X94825628Y-73223364D01*
X94759443Y-73229883D01*
X94693261Y-73236401D01*
X94604741Y-73236401D01*
X94538559Y-73229883D01*
X94472374Y-73223364D01*
X94302535Y-73171844D01*
X94146010Y-73088179D01*
X94110272Y-73058849D01*
X94008815Y-72975587D01*
X93925553Y-72874130D01*
X93896223Y-72838392D01*
X93812558Y-72681867D01*
X93761038Y-72512028D01*
X93743642Y-72335401D01*
X93761038Y-72158774D01*
X93812558Y-71988935D01*
X93896223Y-71832410D01*
X93925553Y-71796672D01*
X94008815Y-71695215D01*
X94110272Y-71611953D01*
X94146010Y-71582623D01*
X94302535Y-71498958D01*
X94472374Y-71447438D01*
X94538559Y-71440919D01*
X94604741Y-71434401D01*
X94693261Y-71434401D01*
X94759443Y-71440919D01*
X94759443Y-71440919D01*
G37*
G36*
X94759443Y-68900919D02*
G01*
X94825628Y-68907438D01*
X94995467Y-68958958D01*
X95151992Y-69042623D01*
X95187730Y-69071953D01*
X95289187Y-69155215D01*
X95372449Y-69256672D01*
X95401779Y-69292410D01*
X95485444Y-69448935D01*
X95536964Y-69618774D01*
X95554360Y-69795401D01*
X95536964Y-69972028D01*
X95485444Y-70141867D01*
X95401779Y-70298392D01*
X95372449Y-70334130D01*
X95289187Y-70435587D01*
X95187730Y-70518849D01*
X95151992Y-70548179D01*
X94995467Y-70631844D01*
X94825628Y-70683364D01*
X94759444Y-70689882D01*
X94693261Y-70696401D01*
X94604741Y-70696401D01*
X94538558Y-70689882D01*
X94472374Y-70683364D01*
X94302535Y-70631844D01*
X94146010Y-70548179D01*
X94110272Y-70518849D01*
X94008815Y-70435587D01*
X93925553Y-70334130D01*
X93896223Y-70298392D01*
X93812558Y-70141867D01*
X93761038Y-69972028D01*
X93743642Y-69795401D01*
X93761038Y-69618774D01*
X93812558Y-69448935D01*
X93896223Y-69292410D01*
X93925553Y-69256672D01*
X94008815Y-69155215D01*
X94110272Y-69071953D01*
X94146010Y-69042623D01*
X94302535Y-68958958D01*
X94472374Y-68907438D01*
X94538559Y-68900919D01*
X94604741Y-68894401D01*
X94693261Y-68894401D01*
X94759443Y-68900919D01*
X94759443Y-68900919D01*
G37*
G36*
X94759444Y-66360920D02*
G01*
X94825628Y-66367438D01*
X94995467Y-66418958D01*
X95151992Y-66502623D01*
X95187730Y-66531953D01*
X95289187Y-66615215D01*
X95372449Y-66716672D01*
X95401779Y-66752410D01*
X95485444Y-66908935D01*
X95536964Y-67078774D01*
X95554360Y-67255401D01*
X95536964Y-67432028D01*
X95485444Y-67601867D01*
X95401779Y-67758392D01*
X95372449Y-67794130D01*
X95289187Y-67895587D01*
X95187730Y-67978849D01*
X95151992Y-68008179D01*
X94995467Y-68091844D01*
X94825628Y-68143364D01*
X94759443Y-68149883D01*
X94693261Y-68156401D01*
X94604741Y-68156401D01*
X94538559Y-68149883D01*
X94472374Y-68143364D01*
X94302535Y-68091844D01*
X94146010Y-68008179D01*
X94110272Y-67978849D01*
X94008815Y-67895587D01*
X93925553Y-67794130D01*
X93896223Y-67758392D01*
X93812558Y-67601867D01*
X93761038Y-67432028D01*
X93743642Y-67255401D01*
X93761038Y-67078774D01*
X93812558Y-66908935D01*
X93896223Y-66752410D01*
X93925553Y-66716672D01*
X94008815Y-66615215D01*
X94110272Y-66531953D01*
X94146010Y-66502623D01*
X94302535Y-66418958D01*
X94472374Y-66367438D01*
X94538558Y-66360920D01*
X94604741Y-66354401D01*
X94693261Y-66354401D01*
X94759444Y-66360920D01*
X94759444Y-66360920D01*
G37*
G36*
X94759444Y-63820920D02*
G01*
X94825628Y-63827438D01*
X94995467Y-63878958D01*
X95151992Y-63962623D01*
X95187730Y-63991953D01*
X95289187Y-64075215D01*
X95372449Y-64176672D01*
X95401779Y-64212410D01*
X95485444Y-64368935D01*
X95536964Y-64538774D01*
X95554360Y-64715401D01*
X95536964Y-64892028D01*
X95485444Y-65061867D01*
X95401779Y-65218392D01*
X95372449Y-65254130D01*
X95289187Y-65355587D01*
X95187730Y-65438849D01*
X95151992Y-65468179D01*
X94995467Y-65551844D01*
X94825628Y-65603364D01*
X94759444Y-65609882D01*
X94693261Y-65616401D01*
X94604741Y-65616401D01*
X94538558Y-65609882D01*
X94472374Y-65603364D01*
X94302535Y-65551844D01*
X94146010Y-65468179D01*
X94110272Y-65438849D01*
X94008815Y-65355587D01*
X93925553Y-65254130D01*
X93896223Y-65218392D01*
X93812558Y-65061867D01*
X93761038Y-64892028D01*
X93743642Y-64715401D01*
X93761038Y-64538774D01*
X93812558Y-64368935D01*
X93896223Y-64212410D01*
X93925553Y-64176672D01*
X94008815Y-64075215D01*
X94110272Y-63991953D01*
X94146010Y-63962623D01*
X94302535Y-63878958D01*
X94472374Y-63827438D01*
X94538558Y-63820920D01*
X94604741Y-63814401D01*
X94693261Y-63814401D01*
X94759444Y-63820920D01*
X94759444Y-63820920D01*
G37*
G36*
X94759443Y-61280919D02*
G01*
X94825628Y-61287438D01*
X94995467Y-61338958D01*
X95151992Y-61422623D01*
X95187730Y-61451953D01*
X95289187Y-61535215D01*
X95372449Y-61636672D01*
X95401779Y-61672410D01*
X95485444Y-61828935D01*
X95536964Y-61998774D01*
X95554360Y-62175401D01*
X95536964Y-62352028D01*
X95485444Y-62521867D01*
X95401779Y-62678392D01*
X95372449Y-62714130D01*
X95289187Y-62815587D01*
X95187730Y-62898849D01*
X95151992Y-62928179D01*
X94995467Y-63011844D01*
X94825628Y-63063364D01*
X94759443Y-63069883D01*
X94693261Y-63076401D01*
X94604741Y-63076401D01*
X94538559Y-63069883D01*
X94472374Y-63063364D01*
X94302535Y-63011844D01*
X94146010Y-62928179D01*
X94110272Y-62898849D01*
X94008815Y-62815587D01*
X93925553Y-62714130D01*
X93896223Y-62678392D01*
X93812558Y-62521867D01*
X93761038Y-62352028D01*
X93743642Y-62175401D01*
X93761038Y-61998774D01*
X93812558Y-61828935D01*
X93896223Y-61672410D01*
X93925553Y-61636672D01*
X94008815Y-61535215D01*
X94110272Y-61451953D01*
X94146010Y-61422623D01*
X94302535Y-61338958D01*
X94472374Y-61287438D01*
X94538559Y-61280919D01*
X94604741Y-61274401D01*
X94693261Y-61274401D01*
X94759443Y-61280919D01*
X94759443Y-61280919D01*
G37*
G36*
X95550001Y-60536401D02*
G01*
X93748001Y-60536401D01*
X93748001Y-58734401D01*
X95550001Y-58734401D01*
X95550001Y-60536401D01*
X95550001Y-60536401D01*
G37*
M02*
