G04 #@! TF.GenerationSoftware,KiCad,Pcbnew,(5.1.2)-1*
G04 #@! TF.CreationDate,2019-07-14T19:38:15+02:00*
G04 #@! TF.ProjectId,pogo,706f676f-2e6b-4696-9361-645f70636258,rev?*
G04 #@! TF.SameCoordinates,Original*
G04 #@! TF.FileFunction,Legend,Top*
G04 #@! TF.FilePolarity,Positive*
%FSLAX46Y46*%
G04 Gerber Fmt 4.6, Leading zero omitted, Abs format (unit mm)*
G04 Created by KiCad (PCBNEW (5.1.2)-1) date 2019-07-14 19:38:15*
%MOMM*%
%LPD*%
G04 APERTURE LIST*
%ADD10C,0.080000*%
%ADD11C,0.120000*%
G04 APERTURE END LIST*
D10*
X84184933Y-58025466D02*
X84184933Y-57325466D01*
X84451600Y-57325466D01*
X84518266Y-57358800D01*
X84551600Y-57392133D01*
X84584933Y-57458800D01*
X84584933Y-57558800D01*
X84551600Y-57625466D01*
X84518266Y-57658800D01*
X84451600Y-57692133D01*
X84184933Y-57692133D01*
X84984933Y-58025466D02*
X84918266Y-57992133D01*
X84884933Y-57958800D01*
X84851600Y-57892133D01*
X84851600Y-57692133D01*
X84884933Y-57625466D01*
X84918266Y-57592133D01*
X84984933Y-57558800D01*
X85084933Y-57558800D01*
X85151600Y-57592133D01*
X85184933Y-57625466D01*
X85218266Y-57692133D01*
X85218266Y-57892133D01*
X85184933Y-57958800D01*
X85151600Y-57992133D01*
X85084933Y-58025466D01*
X84984933Y-58025466D01*
X85818266Y-57558800D02*
X85818266Y-58125466D01*
X85784933Y-58192133D01*
X85751600Y-58225466D01*
X85684933Y-58258800D01*
X85584933Y-58258800D01*
X85518266Y-58225466D01*
X85818266Y-57992133D02*
X85751600Y-58025466D01*
X85618266Y-58025466D01*
X85551600Y-57992133D01*
X85518266Y-57958800D01*
X85484933Y-57892133D01*
X85484933Y-57692133D01*
X85518266Y-57625466D01*
X85551600Y-57592133D01*
X85618266Y-57558800D01*
X85751600Y-57558800D01*
X85818266Y-57592133D01*
X86251600Y-58025466D02*
X86184933Y-57992133D01*
X86151600Y-57958800D01*
X86118266Y-57892133D01*
X86118266Y-57692133D01*
X86151600Y-57625466D01*
X86184933Y-57592133D01*
X86251600Y-57558800D01*
X86351600Y-57558800D01*
X86418266Y-57592133D01*
X86451600Y-57625466D01*
X86484933Y-57692133D01*
X86484933Y-57892133D01*
X86451600Y-57958800D01*
X86418266Y-57992133D01*
X86351600Y-58025466D01*
X86251600Y-58025466D01*
X86784933Y-58025466D02*
X86784933Y-57325466D01*
X87051600Y-57325466D01*
X87118266Y-57358800D01*
X87151600Y-57392133D01*
X87184933Y-57458800D01*
X87184933Y-57558800D01*
X87151600Y-57625466D01*
X87118266Y-57658800D01*
X87051600Y-57692133D01*
X86784933Y-57692133D01*
X87484933Y-58025466D02*
X87484933Y-57558800D01*
X87484933Y-57325466D02*
X87451600Y-57358800D01*
X87484933Y-57392133D01*
X87518266Y-57358800D01*
X87484933Y-57325466D01*
X87484933Y-57392133D01*
X87818266Y-57558800D02*
X87818266Y-58025466D01*
X87818266Y-57625466D02*
X87851600Y-57592133D01*
X87918266Y-57558800D01*
X88018266Y-57558800D01*
X88084933Y-57592133D01*
X88118266Y-57658800D01*
X88118266Y-58025466D01*
X89284933Y-57992133D02*
X89218266Y-58025466D01*
X89084933Y-58025466D01*
X89018266Y-57992133D01*
X88984933Y-57958800D01*
X88951600Y-57892133D01*
X88951600Y-57692133D01*
X88984933Y-57625466D01*
X89018266Y-57592133D01*
X89084933Y-57558800D01*
X89218266Y-57558800D01*
X89284933Y-57592133D01*
X89684933Y-58025466D02*
X89618266Y-57992133D01*
X89584933Y-57958800D01*
X89551600Y-57892133D01*
X89551600Y-57692133D01*
X89584933Y-57625466D01*
X89618266Y-57592133D01*
X89684933Y-57558800D01*
X89784933Y-57558800D01*
X89851600Y-57592133D01*
X89884933Y-57625466D01*
X89918266Y-57692133D01*
X89918266Y-57892133D01*
X89884933Y-57958800D01*
X89851600Y-57992133D01*
X89784933Y-58025466D01*
X89684933Y-58025466D01*
X90218266Y-57558800D02*
X90218266Y-58025466D01*
X90218266Y-57625466D02*
X90251600Y-57592133D01*
X90318266Y-57558800D01*
X90418266Y-57558800D01*
X90484933Y-57592133D01*
X90518266Y-57658800D01*
X90518266Y-58025466D01*
X90851600Y-57558800D02*
X90851600Y-58025466D01*
X90851600Y-57625466D02*
X90884933Y-57592133D01*
X90951600Y-57558800D01*
X91051600Y-57558800D01*
X91118266Y-57592133D01*
X91151600Y-57658800D01*
X91151600Y-58025466D01*
X91751600Y-57992133D02*
X91684933Y-58025466D01*
X91551600Y-58025466D01*
X91484933Y-57992133D01*
X91451600Y-57925466D01*
X91451600Y-57658800D01*
X91484933Y-57592133D01*
X91551600Y-57558800D01*
X91684933Y-57558800D01*
X91751600Y-57592133D01*
X91784933Y-57658800D01*
X91784933Y-57725466D01*
X91451600Y-57792133D01*
X92384933Y-57992133D02*
X92318266Y-58025466D01*
X92184933Y-58025466D01*
X92118266Y-57992133D01*
X92084933Y-57958800D01*
X92051600Y-57892133D01*
X92051600Y-57692133D01*
X92084933Y-57625466D01*
X92118266Y-57592133D01*
X92184933Y-57558800D01*
X92318266Y-57558800D01*
X92384933Y-57592133D01*
X92584933Y-57558800D02*
X92851600Y-57558800D01*
X92684933Y-57325466D02*
X92684933Y-57925466D01*
X92718266Y-57992133D01*
X92784933Y-58025466D01*
X92851600Y-58025466D01*
X93184933Y-58025466D02*
X93118266Y-57992133D01*
X93084933Y-57958800D01*
X93051600Y-57892133D01*
X93051600Y-57692133D01*
X93084933Y-57625466D01*
X93118266Y-57592133D01*
X93184933Y-57558800D01*
X93284933Y-57558800D01*
X93351600Y-57592133D01*
X93384933Y-57625466D01*
X93418266Y-57692133D01*
X93418266Y-57892133D01*
X93384933Y-57958800D01*
X93351600Y-57992133D01*
X93284933Y-58025466D01*
X93184933Y-58025466D01*
X93718266Y-58025466D02*
X93718266Y-57558800D01*
X93718266Y-57692133D02*
X93751600Y-57625466D01*
X93784933Y-57592133D01*
X93851600Y-57558800D01*
X93918266Y-57558800D01*
X96790000Y-72006666D02*
X97223333Y-72006666D01*
X96990000Y-72273333D01*
X97090000Y-72273333D01*
X97156666Y-72306666D01*
X97190000Y-72340000D01*
X97223333Y-72406666D01*
X97223333Y-72573333D01*
X97190000Y-72640000D01*
X97156666Y-72673333D01*
X97090000Y-72706666D01*
X96890000Y-72706666D01*
X96823333Y-72673333D01*
X96790000Y-72640000D01*
X97523333Y-72640000D02*
X97556666Y-72673333D01*
X97523333Y-72706666D01*
X97490000Y-72673333D01*
X97523333Y-72640000D01*
X97523333Y-72706666D01*
X97790000Y-72006666D02*
X98223333Y-72006666D01*
X97990000Y-72273333D01*
X98090000Y-72273333D01*
X98156666Y-72306666D01*
X98190000Y-72340000D01*
X98223333Y-72406666D01*
X98223333Y-72573333D01*
X98190000Y-72640000D01*
X98156666Y-72673333D01*
X98090000Y-72706666D01*
X97890000Y-72706666D01*
X97823333Y-72673333D01*
X97790000Y-72640000D01*
X98456666Y-72240000D02*
X98623333Y-72706666D01*
X98790000Y-72240000D01*
X97406666Y-70100000D02*
X97373333Y-70133333D01*
X97273333Y-70166666D01*
X97206666Y-70166666D01*
X97106666Y-70133333D01*
X97040000Y-70066666D01*
X97006666Y-70000000D01*
X96973333Y-69866666D01*
X96973333Y-69766666D01*
X97006666Y-69633333D01*
X97040000Y-69566666D01*
X97106666Y-69500000D01*
X97206666Y-69466666D01*
X97273333Y-69466666D01*
X97373333Y-69500000D01*
X97406666Y-69533333D01*
X97606666Y-69466666D02*
X98006666Y-69466666D01*
X97806666Y-70166666D02*
X97806666Y-69466666D01*
X98206666Y-70133333D02*
X98306666Y-70166666D01*
X98473333Y-70166666D01*
X98540000Y-70133333D01*
X98573333Y-70100000D01*
X98606666Y-70033333D01*
X98606666Y-69966666D01*
X98573333Y-69900000D01*
X98540000Y-69866666D01*
X98473333Y-69833333D01*
X98340000Y-69800000D01*
X98273333Y-69766666D01*
X98240000Y-69733333D01*
X98206666Y-69666666D01*
X98206666Y-69600000D01*
X98240000Y-69533333D01*
X98273333Y-69500000D01*
X98340000Y-69466666D01*
X98506666Y-69466666D01*
X98606666Y-69500000D01*
X97256666Y-66926666D02*
X97656666Y-66926666D01*
X97456666Y-67626666D02*
X97456666Y-66926666D01*
X97823333Y-66926666D02*
X98290000Y-67626666D01*
X98290000Y-66926666D02*
X97823333Y-67626666D01*
X97673333Y-65086666D02*
X97440000Y-64753333D01*
X97273333Y-65086666D02*
X97273333Y-64386666D01*
X97540000Y-64386666D01*
X97606666Y-64420000D01*
X97640000Y-64453333D01*
X97673333Y-64520000D01*
X97673333Y-64620000D01*
X97640000Y-64686666D01*
X97606666Y-64720000D01*
X97540000Y-64753333D01*
X97273333Y-64753333D01*
X97906666Y-64386666D02*
X98373333Y-65086666D01*
X98373333Y-64386666D02*
X97906666Y-65086666D01*
X96990000Y-62546666D02*
X96990000Y-61846666D01*
X97156666Y-61846666D01*
X97256666Y-61880000D01*
X97323333Y-61946666D01*
X97356666Y-62013333D01*
X97390000Y-62146666D01*
X97390000Y-62246666D01*
X97356666Y-62380000D01*
X97323333Y-62446666D01*
X97256666Y-62513333D01*
X97156666Y-62546666D01*
X96990000Y-62546666D01*
X97590000Y-61846666D02*
X97990000Y-61846666D01*
X97790000Y-62546666D02*
X97790000Y-61846666D01*
X98623333Y-62546666D02*
X98390000Y-62213333D01*
X98223333Y-62546666D02*
X98223333Y-61846666D01*
X98490000Y-61846666D01*
X98556666Y-61880000D01*
X98590000Y-61913333D01*
X98623333Y-61980000D01*
X98623333Y-62080000D01*
X98590000Y-62146666D01*
X98556666Y-62180000D01*
X98490000Y-62213333D01*
X98223333Y-62213333D01*
X97256666Y-59340000D02*
X97190000Y-59306666D01*
X97090000Y-59306666D01*
X96990000Y-59340000D01*
X96923333Y-59406666D01*
X96890000Y-59473333D01*
X96856666Y-59606666D01*
X96856666Y-59706666D01*
X96890000Y-59840000D01*
X96923333Y-59906666D01*
X96990000Y-59973333D01*
X97090000Y-60006666D01*
X97156666Y-60006666D01*
X97256666Y-59973333D01*
X97290000Y-59940000D01*
X97290000Y-59706666D01*
X97156666Y-59706666D01*
X97590000Y-60006666D02*
X97590000Y-59306666D01*
X97990000Y-60006666D01*
X97990000Y-59306666D01*
X98323333Y-60006666D02*
X98323333Y-59306666D01*
X98490000Y-59306666D01*
X98590000Y-59340000D01*
X98656666Y-59406666D01*
X98690000Y-59473333D01*
X98723333Y-59606666D01*
X98723333Y-59706666D01*
X98690000Y-59840000D01*
X98656666Y-59906666D01*
X98590000Y-59973333D01*
X98490000Y-60006666D01*
X98323333Y-60006666D01*
D11*
X95919001Y-58365401D02*
X95919001Y-59635401D01*
X94649001Y-58365401D02*
X95919001Y-58365401D01*
X93619001Y-72715401D02*
X93189001Y-72715401D01*
X93619001Y-71955401D02*
X93189001Y-71955401D01*
X84559001Y-71065401D02*
X93189001Y-71065401D01*
X84559001Y-73665401D02*
X84559001Y-71065401D01*
X93189001Y-73665401D02*
X84559001Y-73665401D01*
X93189001Y-71065401D02*
X93189001Y-73665401D01*
X93619001Y-70175401D02*
X93189001Y-70175401D01*
X93619001Y-69415401D02*
X93189001Y-69415401D01*
X84559001Y-68525401D02*
X93189001Y-68525401D01*
X84559001Y-71065401D02*
X84559001Y-68525401D01*
X93189001Y-71065401D02*
X84559001Y-71065401D01*
X93189001Y-68525401D02*
X93189001Y-71065401D01*
X93619001Y-67635401D02*
X93189001Y-67635401D01*
X93619001Y-66875401D02*
X93189001Y-66875401D01*
X84559001Y-65985401D02*
X93189001Y-65985401D01*
X84559001Y-68525401D02*
X84559001Y-65985401D01*
X93189001Y-68525401D02*
X84559001Y-68525401D01*
X93189001Y-65985401D02*
X93189001Y-68525401D01*
X93619001Y-65095401D02*
X93189001Y-65095401D01*
X93619001Y-64335401D02*
X93189001Y-64335401D01*
X84559001Y-63445401D02*
X93189001Y-63445401D01*
X84559001Y-65985401D02*
X84559001Y-63445401D01*
X93189001Y-65985401D02*
X84559001Y-65985401D01*
X93189001Y-63445401D02*
X93189001Y-65985401D01*
X93619001Y-62555401D02*
X93189001Y-62555401D01*
X93619001Y-61795401D02*
X93189001Y-61795401D01*
X84559001Y-60905401D02*
X93189001Y-60905401D01*
X84559001Y-63445401D02*
X84559001Y-60905401D01*
X93189001Y-63445401D02*
X84559001Y-63445401D01*
X93189001Y-60905401D02*
X93189001Y-63445401D01*
X93189001Y-61005401D02*
X84559001Y-61005401D01*
X93189001Y-60885401D02*
X84559001Y-60885401D01*
X93189001Y-60765401D02*
X84559001Y-60765401D01*
X93189001Y-60645401D02*
X84559001Y-60645401D01*
X93189001Y-60525401D02*
X84559001Y-60525401D01*
X93189001Y-60405401D02*
X84559001Y-60405401D01*
X93189001Y-60285401D02*
X84559001Y-60285401D01*
X93189001Y-60165401D02*
X84559001Y-60165401D01*
X93189001Y-60045401D02*
X84559001Y-60045401D01*
X93189001Y-59925401D02*
X84559001Y-59925401D01*
X93189001Y-59805401D02*
X84559001Y-59805401D01*
X93189001Y-59685401D02*
X84559001Y-59685401D01*
X93189001Y-59565401D02*
X84559001Y-59565401D01*
X93189001Y-59445401D02*
X84559001Y-59445401D01*
X93189001Y-59325401D02*
X84559001Y-59325401D01*
X93189001Y-59205401D02*
X84559001Y-59205401D01*
X93189001Y-59085401D02*
X84559001Y-59085401D01*
X93189001Y-58965401D02*
X84559001Y-58965401D01*
X93189001Y-58845401D02*
X84559001Y-58845401D01*
X93189001Y-58725401D02*
X84559001Y-58725401D01*
X93189001Y-58605401D02*
X84559001Y-58605401D01*
X93189001Y-58485401D02*
X84559001Y-58485401D01*
X93619001Y-60015401D02*
X93189001Y-60015401D01*
X93619001Y-59255401D02*
X93189001Y-59255401D01*
X84559001Y-58305401D02*
X93189001Y-58305401D01*
X84559001Y-60905401D02*
X84559001Y-58305401D01*
X93189001Y-60905401D02*
X84559001Y-60905401D01*
X93189001Y-58305401D02*
X93189001Y-60905401D01*
M02*
